<?xml version="1.0" encoding="utf-8"?>
<!-- Generator: Adobe Illustrator 18.1.1, SVG Export Plug-In . SVG Version: 6.00 Build 0)  -->
<!DOCTYPE svg PUBLIC "-//W3C//DTD SVG 1.1//EN" "http://www.w3.org/Graphics/SVG/1.1/DTD/svg11.dtd">
<svg version="1.1" id="Layer_1" xmlns="http://www.w3.org/2000/svg" xmlns:xlink="http://www.w3.org/1999/xlink" x="0px" y="0px"
	 viewBox="0 0 612 792" enable-background="new 0 0 612 792" xml:space="preserve">
<g>
	<path fill="#2567B1" d="M10.4,292.6h127.3v407.6H10.4V292.6z M74.1,89.4c40.4,0,73.4,33,73.4,73.4s-33,73.4-73.4,73.4
		s-73.4-33-73.4-73.4S33.7,89.4,74.1,89.4"/>
	<path fill="#2567B1" d="M217.3,292.6h121.2v56.3h1.2c17.1-31.8,58.8-66.1,120-66.1c128.5,0,151.8,84.5,151.8,194.6v224H484.1V503.1
		c0-47.7-1.2-107.7-66.1-107.7c-66.1,0-75.9,51.4-75.9,105.3v202H216v-410H217.3z"/>
</g>
</svg>
