<?xml version="1.0" encoding="utf-8"?>
<!-- Generator: Adobe Illustrator 18.1.1, SVG Export Plug-In . SVG Version: 6.00 Build 0)  -->
<!DOCTYPE svg PUBLIC "-//W3C//DTD SVG 1.1//EN" "http://www.w3.org/Graphics/SVG/1.1/DTD/svg11.dtd">
<svg version="1.1" id="Layer_1" xmlns="http://www.w3.org/2000/svg" xmlns:xlink="http://www.w3.org/1999/xlink" x="0px" y="0px"
	 viewBox="281 371 50 50" enable-background="new 281 371 50 50" xml:space="preserve">
<g>
	<path fill="#2567B1" d="M287.4,371h37.3c3.5,0,6.4,2.9,6.4,6.4v37.3c0,3.5-2.9,6.4-6.4,6.4h-37.3c-3.5,0-6.4-2.9-6.4-6.4v-37.3
		C281,373.9,283.9,371,287.4,371z M317.6,376.6c-1.2,0-2.3,1-2.3,2.3v5.4c0,1.2,1,2.3,2.3,2.3h5.7c1.2,0,2.3-1,2.3-2.3v-5.4
		c0-1.2-1-2.3-2.3-2.3H317.6z M325.5,392.2h-4.4c0.4,1.4,0.6,2.8,0.6,4.3c0,8.3-7,15.1-15.6,15.1c-8.6,0-15.6-6.8-15.6-15.1
		c0-1.5,0.2-2.9,0.6-4.3h-4.6v21.2c0,1.1,0.9,2,2,2h34.9c1.1,0,2-0.9,2-2V392.2z M306.1,386.2c-5.6,0-10.1,4.4-10.1,9.8
		c0,5.4,4.5,9.8,10.1,9.8c5.6,0,10.1-4.4,10.1-9.8C316.2,390.6,311.7,386.2,306.1,386.2z"/>
</g>
</svg>
