<?xml version="1.0" encoding="utf-8"?>
<!-- Generator: Adobe Illustrator 18.1.1, SVG Export Plug-In . SVG Version: 6.00 Build 0)  -->
<!DOCTYPE svg PUBLIC "-//W3C//DTD SVG 1.1//EN" "http://www.w3.org/Graphics/SVG/1.1/DTD/svg11.dtd">
<svg version="1.1" id="Layer_1" xmlns="http://www.w3.org/2000/svg" xmlns:xlink="http://www.w3.org/1999/xlink" x="0px" y="0px"
	 viewBox="0 0 612 792" enable-background="new 0 0 612 792" xml:space="preserve">
<path fill="#2567B1" d="M610.2,206.3c-22,9.8-46.5,17.1-72.2,19.6c25.7-15.9,45.3-40.4,55.1-69.8c-24.5,14.7-51.4,24.5-79.6,30.6
	c-23.3-24.5-55.1-39.2-91.8-39.2c-69.8,0-124.8,56.3-124.8,124.8c0,9.8,1.2,19.6,3.7,28.2c-104-4.9-197.1-55.1-258.3-131
	c-11,18.4-17.1,40.4-17.1,63.6c0,44.1,22,82,56.3,104c-20.8-1.2-40.4-6.1-56.3-15.9v1.2c0,61.2,42.8,111.4,100.4,123.6
	c-11,2.4-22,4.9-33,4.9c-8.6,0-15.9-1.2-23.3-2.4c15.9,50.2,62.4,85.7,117.5,86.9c-42.8,33-96.7,53.9-155.4,53.9
	c-9.8,0-19.6-1.2-29.4-1.2C56.9,623.7,123,644.5,194,644.5c231.3,0,357.4-190.9,357.4-357.4c0-4.9,0-11,0-15.9
	C572.2,254,593,232,610.2,206.3z"/>
</svg>
