<?xml version="1.0" encoding="utf-8"?>
<!-- Generator: Adobe Illustrator 18.1.1, SVG Export Plug-In . SVG Version: 6.00 Build 0)  -->
<!DOCTYPE svg PUBLIC "-//W3C//DTD SVG 1.1//EN" "http://www.w3.org/Graphics/SVG/1.1/DTD/svg11.dtd">
<svg version="1.1" id="Layer_1" xmlns="http://www.w3.org/2000/svg" xmlns:xlink="http://www.w3.org/1999/xlink" x="0px" y="0px"
	 viewBox="281 371 50 50" enable-background="new 281 371 50 50" xml:space="preserve">
<g>
	<path fill="#2567B1" d="M281.8,387.6h10.4v33.3h-10.4V387.6z M287,371c3.3,0,6,2.7,6,6c0,3.3-2.7,6-6,6c-3.3,0-6-2.7-6-6
		C281,373.7,283.7,371,287,371"/>
	<path fill="#2567B1" d="M298.7,387.6h9.9v4.6h0.1c1.4-2.6,4.8-5.4,9.8-5.4c10.5,0,12.4,6.9,12.4,15.9v18.3h-10.4v-16.2
		c0-3.9-0.1-8.8-5.4-8.8c-5.4,0-6.2,4.2-6.2,8.6v16.5h-10.3V387.6z"/>
</g>
</svg>
