<?xml version="1.0" encoding="utf-8"?>
<!-- Generator: Adobe Illustrator 18.1.1, SVG Export Plug-In . SVG Version: 6.00 Build 0)  -->
<!DOCTYPE svg PUBLIC "-//W3C//DTD SVG 1.1//EN" "http://www.w3.org/Graphics/SVG/1.1/DTD/svg11.dtd">
<svg version="1.1" id="Layer_1" xmlns="http://www.w3.org/2000/svg" xmlns:xlink="http://www.w3.org/1999/xlink" x="0px" y="0px"
	 viewBox="0 0 612 792" enable-background="new 0 0 612 792" xml:space="preserve">
<g>
	<path fill="#2567B1" d="M77.7,89.4h456.6c42.8,0,78.3,35.5,78.3,78.3v456.6c0,42.8-35.5,78.3-78.3,78.3H77.7
		c-42.8,0-78.3-35.5-78.3-78.3V167.7C-0.6,124.9,34.9,89.4,77.7,89.4z M447.4,157.9c-14.7,0-28.2,12.2-28.2,28.2v66.1
		c0,14.7,12.2,28.2,28.2,28.2h69.8c14.7,0,28.2-12.2,28.2-28.2v-66.1c0-14.7-12.2-28.2-28.2-28.2H447.4z M544.1,348.9h-53.9
		c4.9,17.1,7.3,34.3,7.3,52.6c0,101.6-85.7,184.8-190.9,184.8s-190.9-83.2-190.9-184.8c0-18.4,2.4-35.5,7.3-52.6H66.7v259.5
		c0,13.5,11,24.5,24.5,24.5h427.2c13.5,0,24.5-11,24.5-24.5V348.9H544.1z M306.6,275.4c-68.5,0-123.6,53.9-123.6,120
		s55.1,120,123.6,120s123.6-53.9,123.6-120S375.2,275.4,306.6,275.4z"/>
</g>
</svg>
