<?xml version="1.0" encoding="utf-8"?>
<!-- Generator: Adobe Illustrator 18.1.1, SVG Export Plug-In . SVG Version: 6.00 Build 0)  -->
<!DOCTYPE svg PUBLIC "-//W3C//DTD SVG 1.1//EN" "http://www.w3.org/Graphics/SVG/1.1/DTD/svg11.dtd">
<svg version="1.1" id="Layer_1" xmlns="http://www.w3.org/2000/svg" xmlns:xlink="http://www.w3.org/1999/xlink" x="0px" y="0px"
	 viewBox="465.5 0 112.3 1320" enable-background="new 465.5 0 112.3 1320" xml:space="preserve">
<polygon fill="#C7E6ED" points="465.5,112.2 465.5,0 577.7,0 "/>
<polygon fill="#C7E6ED" points="577.7,151.8 577.7,264 465.5,264 "/>
<polygon fill="#C7E6ED" points="465.5,376.2 465.5,264 577.7,264 "/>
<polygon fill="#C7E6ED" points="577.7,415.8 577.7,528 465.5,528 "/>
<polygon fill="#C7E6ED" points="465.5,640.2 465.5,528 577.7,528 "/>
<polygon fill="#C7E6ED" points="577.7,679.8 577.7,792 465.5,792 "/>
<polygon fill="#C7E6ED" points="465.5,904.2 465.5,792 577.7,792 "/>
<polygon fill="#C7E6ED" points="577.7,943.8 577.7,1056 465.5,1056 "/>
<polygon fill="#C7E6ED" points="465.5,1168.2 465.5,1056 577.7,1056 "/>
<polygon fill="#C7E6ED" points="577.7,1207.8 577.7,1320 465.5,1320 "/>
</svg>
