<?xml version="1.0" encoding="utf-8"?>
<!-- Generator: Adobe Illustrator 18.1.1, SVG Export Plug-In . SVG Version: 6.00 Build 0)  -->
<!DOCTYPE svg PUBLIC "-//W3C//DTD SVG 1.1//EN" "http://www.w3.org/Graphics/SVG/1.1/DTD/svg11.dtd">
<svg version="1.1" id="Layer_1" xmlns="http://www.w3.org/2000/svg" xmlns:xlink="http://www.w3.org/1999/xlink" x="0px" y="0px"
	 viewBox="0 0 900 560" enable-background="new 0 0 900 560" xml:space="preserve">
<g>
	<g>
		<g>
			<path fill="#2567B1" d="M258.1,379.9v30.8h3.5c2.4,0,3.5-1.2,3.5-3.7v-23.3c0-2.5-1.2-3.8-3.5-3.8H258.1z M254.3,376.2h7.9
				c4.5,0,6.7,2.5,6.7,7.4v23.3c0,4.9-2.4,7.4-7.1,7.4h-7.5V376.2z"/>
		</g>
		<polygon fill="#2567B1" points="334.3,376.2 334.3,414.4 347.3,414.4 347.3,410.7 338,410.7 338,397.2 346,397.2 346,393.4 
			338,393.4 338,379.9 347.3,379.9 347.3,376.2 		"/>
		<g>
			<path fill="#2567B1" d="M411.6,383c0-4.9,2.4-7.4,7.3-7.4c4.9,0,7.3,2.5,7.3,7.4v4.4h-3.8V383c0-2.5-1.2-3.7-3.5-3.7h0
				c-2.3,0-3.5,1.2-3.5,3.7v3.6c0,2.1,1.9,4.6,5.9,7.4c3.3,2.4,5,5.2,5,8.5v5.1c0,5-2.4,7.4-7.3,7.4c-4.9,0-7.3-2.5-7.3-7.4v-4.4
				h3.8v4.4c0,2.5,1.2,3.7,3.5,3.7c2.4,0,3.5-1.2,3.5-3.7V403c0-2.3-2-4.8-5.9-7.6c-3.3-2.4-5-5.3-5-8.6V383z"/>
		</g>
		<rect x="491.7" y="376.2" fill="#2567B1" width="3.8" height="38.1"/>
		<g>
			<path fill="#2567B1" d="M575.6,407.6c0,4.9-2.4,7.4-7.3,7.4c-4.9,0-7.3-2.5-7.3-7.4V383c0-4.9,2.4-7.4,7.3-7.4
				c4.9,0,7.3,2.5,7.3,7.4v4.4h-3.8V383c0-2.5-1.2-3.7-3.5-3.7h0c-2.3,0-3.5,1.2-3.5,3.7v24.6c0,2.5,1.2,3.7,3.5,3.7
				c2.4,0,3.5-1.2,3.5-3.7v-10.4h-2.9v-3.7h6.7V407.6z"/>
		</g>
		<polygon fill="#2567B1" points="640.9,376.2 640.9,414.4 644.5,414.4 644.5,384.1 651.6,414.4 655.6,414.4 655.6,376.3 
			652.2,376.3 652.2,407.2 644.9,376.2 		"/>
	</g>
	<path fill="#2567B1" d="M412.2,260.1h29.4v44.3h-62.9L412.2,260.1z M593.7,120l-53.9,70.2l0-70.2h-86.9l-21.4,31.8l0.2-31.8H253.2
		v48.9l108.7,0L253.2,313.6v41.2h285.1l0-72.5l55.4,72.5H658l-89.5-117.2L655.1,120H593.7z"/>
	<polygon fill="#FFFFFF" points="460.9,130.7 484.2,130.7 484.2,343.4 457.6,343.4 458,181.6 424.7,225.1 442.3,225.1 442.3,246.7 
		408.4,246.7 364.2,304 328.4,304 	"/>
	<polygon fill="#FFFFFF" points="442.7,317.4 442.4,343.4 264.3,343.4 264.3,317.4 384.4,157.5 264.3,157.5 264.3,130.7 
		420.9,130.7 421,157.5 300,317.4 	"/>
	<polygon fill="#FFFFFF" points="635.5,130.7 599.9,130.7 528.7,225.1 528.7,130.7 499.1,130.7 499.1,343.4 528.7,343.4 
		528.7,247.5 528.8,247.5 600,343.4 635.4,343.4 555.3,237.7 	"/>
</g>
</svg>
