<?xml version="1.0" encoding="utf-8"?>
<!-- Generator: Adobe Illustrator 18.1.1, SVG Export Plug-In . SVG Version: 6.00 Build 0)  -->
<!DOCTYPE svg PUBLIC "-//W3C//DTD SVG 1.1//EN" "http://www.w3.org/Graphics/SVG/1.1/DTD/svg11.dtd">
<svg version="1.1" id="Layer_1" xmlns="http://www.w3.org/2000/svg" xmlns:xlink="http://www.w3.org/1999/xlink" x="0px" y="0px"
	 viewBox="0 0 960 560" enable-background="new 0 0 960 560" xml:space="preserve">
<g>
	<g>
		<g>
			<path fill="#3A74B9" d="M277.2,386v32.6h3.8c2.5,0,3.7-1.3,3.7-4V390c0-2.7-1.2-4-3.7-4H277.2z M273.2,382.1h8.4
				c4.7,0,7.1,2.6,7.1,7.9v24.6c0,5.2-2.5,7.8-7.5,7.9h-8V382.1z"/>
		</g>
		<polygon fill="#3A74B9" points="357.8,382.1 357.8,422.5 371.6,422.5 371.6,418.6 361.8,418.6 361.8,404.3 370.3,404.3 
			370.3,400.4 361.8,400.4 361.8,386 371.6,386 371.6,382.1 		"/>
		<g>
			<path fill="#3A74B9" d="M439.8,389.3c0-5.2,2.6-7.9,7.7-7.9c5.2,0,7.8,2.6,7.8,7.9v4.7h-4v-4.7c0-2.6-1.2-3.9-3.7-3.9h0
				c-2.5,0-3.7,1.3-3.7,3.9v3.9c0,2.2,2.1,4.8,6.2,7.8c3.5,2.5,5.3,5.5,5.3,9v5.4c0,5.3-2.6,7.9-7.7,7.9c-5.2,0-7.8-2.6-7.8-7.9
				v-4.7h4v4.7c0,2.6,1.3,3.9,3.8,3.9c2.5,0,3.7-1.3,3.7-3.9v-4.8c0-2.4-2.1-5.1-6.2-8.1c-3.5-2.5-5.3-5.6-5.3-9.1V389.3z"/>
		</g>
		<rect x="524.6" y="382.1" fill="#3A74B9" width="4" height="40.4"/>
		<g>
			<path fill="#3A74B9" d="M613.4,415.3c0,5.2-2.6,7.9-7.8,7.9c-5.2,0-7.7-2.6-7.7-7.9v-26c0-5.2,2.6-7.9,7.7-7.9
				c5.2,0,7.8,2.6,7.8,7.9v4.7h-4v-4.7c0-2.6-1.2-3.9-3.7-3.9h0c-2.5,0-3.7,1.3-3.7,3.9v26c0,2.6,1.2,3.9,3.7,3.9
				c2.5,0,3.8-1.3,3.8-3.9v-11h-3.1v-3.9h7.1V415.3z"/>
		</g>
		<polygon fill="#3A74B9" points="682.6,382.1 682.6,422.5 686.4,422.5 686.4,390.5 693.9,422.5 698.1,422.5 698.1,382.2 
			694.5,382.2 694.5,414.9 686.8,382.1 		"/>
	</g>
	<path fill="#3A74B9" d="M440.4,259.2h31.1v46.9h-66.6L440.4,259.2z M632.6,110.8l-57.1,74.4l0-74.4h-92l-22.7,33.7l0.3-33.7H272
		v51.7l115.1,0L272,315.8v43.6H574l0-76.7l58.7,76.7h68.1l-94.7-124.1l91.6-124.5H632.6z"/>
	<polygon fill="#FFFFFF" points="491.9,122.1 516.6,122.1 516.6,347.4 488.5,347.4 488.8,176.1 453.6,222.1 472.2,222.1 472.2,245 
		436.4,245 389.6,305.6 351.6,305.6 	"/>
	<polygon fill="#FFFFFF" points="472.6,319.8 472.4,347.4 283.7,347.4 283.7,319.8 411,150.5 283.7,150.5 283.7,122.1 449.6,122.1 
		449.7,150.5 321.6,319.8 	"/>
	<polygon fill="#FFFFFF" points="676.8,122.1 639.1,122.1 563.7,222.1 563.7,122.1 532.4,122.1 532.4,347.4 563.7,347.4 
		563.7,245.8 563.8,245.8 639.3,347.4 676.7,347.4 591.9,235.5 	"/>
</g>
</svg>
