<?xml version="1.0" encoding="utf-8"?>
<!-- Generator: Adobe Illustrator 18.1.1, SVG Export Plug-In . SVG Version: 6.00 Build 0)  -->
<!DOCTYPE svg PUBLIC "-//W3C//DTD SVG 1.1//EN" "http://www.w3.org/Graphics/SVG/1.1/DTD/svg11.dtd">
<svg version="1.1" id="Layer_1" xmlns="http://www.w3.org/2000/svg" xmlns:xlink="http://www.w3.org/1999/xlink" x="0px" y="0px"
	 viewBox="0 0 301.4 219.7" enable-background="new 0 0 301.4 219.7" xml:space="preserve">
<g>
	<g>
		<g>
			<path fill="#FFFFFF" d="M3.6,193.5v22.9h2.6c1.7,0,2.6-0.9,2.6-2.8v-17.3c0-1.9-0.9-2.8-2.6-2.8H3.6z M0.8,190.8h5.9
				c3.3,0,5,1.9,5,5.5v17.3c0,3.7-1.8,5.5-5.3,5.5H0.8V190.8z"/>
		</g>
		<polygon fill="#FFFFFF" points="60.4,190.8 60.4,219.2 70,219.2 70,216.5 63.2,216.5 63.2,206.4 69.1,206.4 69.1,203.6 
			63.2,203.6 63.2,193.5 70,193.5 70,190.8 		"/>
		<g>
			<path fill="#FFFFFF" d="M118,195.9c0-3.7,1.8-5.5,5.4-5.5c3.6,0,5.5,1.8,5.5,5.5v3.3H126v-3.3c0-1.8-0.9-2.8-2.6-2.8h0
				c-1.7,0-2.6,0.9-2.6,2.8v2.7c0,1.6,1.5,3.4,4.4,5.5c2.5,1.8,3.7,3.9,3.7,6.3v3.8c0,3.7-1.8,5.5-5.4,5.5c-3.6,0-5.5-1.9-5.5-5.5
				v-3.3h2.8v3.3c0,1.8,0.9,2.8,2.6,2.8c1.7,0,2.6-0.9,2.6-2.8v-3.4c0-1.7-1.5-3.6-4.4-5.7c-2.5-1.8-3.7-3.9-3.7-6.4V195.9z"/>
		</g>
		<rect x="177.6" y="190.8" fill="#FFFFFF" width="2.8" height="28.4"/>
		<g>
			<path fill="#FFFFFF" d="M240,214.1c0,3.7-1.8,5.5-5.5,5.5c-3.6,0-5.4-1.8-5.4-5.5v-18.3c0-3.7,1.8-5.5,5.4-5.5
				c3.6,0,5.5,1.8,5.5,5.5v3.3h-2.8v-3.3c0-1.8-0.9-2.8-2.6-2.8h0c-1.7,0-2.6,0.9-2.6,2.8v18.3c0,1.8,0.9,2.8,2.6,2.8
				c1.8,0,2.6-0.9,2.6-2.8v-7.8H235v-2.8h5V214.1z"/>
		</g>
		<polygon fill="#FFFFFF" points="288.7,190.8 288.7,219.2 291.3,219.2 291.3,196.6 296.6,219.2 299.6,219.2 299.6,190.8 
			297.1,190.9 297.1,213.9 291.6,190.8 		"/>
	</g>
	<path fill="#FFFFFF" d="M118.4,104.4h21.9v33H93.4L118.4,104.4z M253.5,0l-40.2,52.3l0-52.3h-64.7l-16,23.7L132.9,0H0v36.4l80.9,0
		L0,144.2v30.6h212.3l0-53.9l41.2,53.9h47.9l-66.6-87.3L299.2,0H253.5z"/>
	<polygon fill="#2567B1" points="154.6,8 172,8 172,166.3 152.2,166.3 152.4,45.9 127.7,78.3 140.8,78.3 140.8,94.4 115.6,94.4 
		82.7,137 56,137 	"/>
	<polygon fill="#2567B1" points="141.1,147 140.9,166.3 8.2,166.3 8.2,147 97.7,27.9 8.2,27.9 8.2,8 124.9,8 124.9,27.9 34.9,147 	
		"/>
	<polygon fill="#2567B1" points="284.6,8 258.1,8 205.1,78.3 205.1,8 183.1,8 183.1,166.3 205.1,166.3 205.1,94.9 205.2,94.9 
		258.2,166.3 284.5,166.3 224.9,87.7 	"/>
</g>
</svg>
